<svg xmlns="http://www.w3.org/2000/svg" version="1.1" xmlns:xlink="http://www.w3.org/1999/xlink" xmlns:svgjs="http://svgjs.dev/svgjs" width="2000" height="1252" viewBox="0 0 2000 1252"><g transform="matrix(1,0,0,1,-1.2121212121212466,-2.01935483870966)"><svg viewBox="0 0 396 248" data-background-color="#010c80" preserveAspectRatio="xMidYMid meet" height="1252" width="2000" xmlns="http://www.w3.org/2000/svg" xmlns:xlink="http://www.w3.org/1999/xlink"><g id="tight-bounds" transform="matrix(1,0,0,1,0.2400000000000091,0.4000000000000057)"><svg viewBox="0 0 395.52 247.2" height="247.2" width="395.52"><g><svg></svg></g><g><svg viewBox="0 0 395.52 247.2" height="247.2" width="395.52"><g transform="matrix(1,0,0,1,39.55199999999999,98.39488499683478)"><svg viewBox="0 0 316.416 50.410230006330444" height="50.410230006330444" width="316.416"><g><svg viewBox="0 0 316.416 50.410230006330444" height="50.410230006330444" width="316.416"><g><svg viewBox="0 0 316.416 50.410230006330444" height="50.410230006330444" width="316.416"><g><svg viewBox="0 0 316.416 50.410230006330444" height="50.410230006330444" width="316.416"><g id="textblocktransform"><svg viewBox="0 0 316.416 50.410230006330444" height="50.410230006330444" width="316.416" id="textblock"><g><svg viewBox="0 0 316.416 50.410230006330444" height="50.410230006330444" width="316.416"><g transform="matrix(1,0,0,1,0,0)"><svg width="316.416" viewBox="1 -37.25 236.93 37.75" height="50.410230006330444" data-palette-color="#f8fafc"><path d="M9.05-32.8L9.05-32.8Q11.1-32.8 13.08-32.9 15.05-33 18.05-33L18.05-33Q21-33 23.8-32 26.6-31 28.9-29 31.2-27 32.55-23.93 33.9-20.85 33.9-16.7L33.9-16.7Q33.9-12.3 32.45-9.13 31-5.95 28.65-3.93 26.3-1.9 23.55-0.93 20.8 0.05 18.2 0.05L18.2 0.05Q15.75 0.05 13.73-0.05 11.7-0.15 9.2-0.15L9.2-0.15 12.9-3.8Q15-3.15 16.95-2.95 18.9-2.75 20.5-2.75L20.5-2.75Q22.45-4 23.7-6.05 24.95-8.1 25.55-10.63 26.15-13.15 26.15-15.75L26.15-15.75Q26.15-18.5 25.53-21.1 24.9-23.7 23.68-25.8 22.45-27.9 20.68-29.13 18.9-30.35 16.65-30.35L16.65-30.35Q15.5-30.35 14.65-30.2 13.8-30.05 12.9-29.8L12.9-29.8Q12.85-26.95 12.85-23.85 12.85-20.75 12.85-17.8L12.85-17.8Q12.85-14.15 12.88-10.6 12.9-7.05 12.95-3.65L12.95-3.65 15-1.5 14.45-0.05Q13.6-0.1 12.9-0.1 12.2-0.1 11.38-0.13 10.55-0.15 9.2-0.15L9.2-0.15Q6.7-0.2 4.95-0.13 3.2-0.05 1.65 0L1.65 0 1-1.9 5.4-2.9Q5.5-7.65 5.6-11.25 5.7-14.85 5.7-17.8L5.7-17.8Q5.7-21.2 5.63-24.33 5.55-27.45 5.45-29.85L5.45-29.85 1.05-31.05 1.65-33Q3.15-32.95 4.2-32.9 5.25-32.85 6.38-32.83 7.5-32.8 9.05-32.8ZM47.8-21.7L47.8-21.7Q47.85-20.55 47.95-19 48.05-17.45 48.15-16.18 48.25-14.9 48.25-14.45L48.25-14.45 48.6-3.1 53.55-1.85 52.8 0Q51.95-0.05 50.55-0.08 49.15-0.1 47.65-0.13 46.15-0.15 44.95-0.15L44.95-0.15Q43.4-0.15 41.6-0.1 39.8-0.05 38.3 0L38.3 0 37.55-1.85 41.6-2.9Q41.6-5.15 41.6-6.93 41.6-8.7 41.6-10.8L41.6-10.8Q41.6-11.95 41.57-12.93 41.55-13.9 41.5-15.13 41.45-16.35 41.3-18.15L41.3-18.15 37.9-18.7 37.2-20.8Q38.35-20.85 40.27-20.95 42.2-21.05 44.25-21.25 46.3-21.45 47.8-21.7ZM54.5-21.8L54.5-21.8Q55.9-21.8 57.1-21.28 58.3-20.75 59.4-19.6L59.4-19.6Q59.1-18.1 58.85-17 58.6-15.9 58.27-14.83 57.95-13.75 57.5-12.2L57.5-12.2 54.7-12.2Q54.35-14.05 53.67-15.43 53-16.8 51.85-17.3L51.85-17.3Q50.6-16.5 49.47-14.33 48.35-12.15 48.35-8.55L48.35-8.55 46.4-11.45Q46.8-14.25 47.95-16.6 49.1-18.95 50.77-20.38 52.45-21.8 54.5-21.8ZM72.15-21.85L72.15-21.85Q74.65-21.85 76.77-20.75 78.9-19.65 80.17-17.43 81.45-15.2 81.45-11.85L81.45-11.85Q80.34-11.65 78.55-11.5 76.75-11.35 74.59-11.28 72.45-11.2 70.3-11.2L70.3-11.2Q68.7-11.2 67.55-11.25 66.4-11.3 66-11.35L66-11.35 66-13.75Q66.55-13.75 67.67-13.75 68.8-13.75 70.2-13.8 71.59-13.85 72.92-13.95 74.25-14.05 75.15-14.2L75.15-14.2Q75.09-15.25 74.57-16.32 74.05-17.4 73-18.15 71.95-18.9 70.3-18.9L70.3-18.9Q69.3-17.95 68.7-16.28 68.09-14.6 68.09-12.4L68.09-12.4Q68.09-7.9 69.97-5.78 71.84-3.65 74.59-3.65L74.59-3.65Q77.4-3.65 80.5-5.65L80.5-5.65 81.59-3.35Q79.45-1.4 77-0.55 74.55 0.3 72.15 0.3L72.15 0.3Q69.34 0.3 66.92-0.93 64.5-2.15 63.02-4.6 61.55-7.05 61.55-10.7L61.55-10.7Q61.55-14.4 63.07-16.88 64.59-19.35 67.02-20.6 69.45-21.85 72.15-21.85ZM83.79-1.3L83.79-1.3Q84.19-3.2 84.47-4.48 84.74-5.75 84.94-7.25L84.94-7.25 87.44-7.25 88.24-3.35Q88.89-2.8 89.79-2.5 90.69-2.2 91.59-2.2L91.59-2.2Q92.84-2.2 93.82-2.8 94.79-3.4 94.79-4.65L94.79-4.65Q94.79-5.7 94.02-6.38 93.24-7.05 92.04-7.58 90.84-8.1 89.49-8.63 88.14-9.15 86.94-9.95 85.74-10.75 84.97-11.95 84.19-13.15 84.19-15L84.19-15Q84.19-17.55 85.44-19.03 86.69-20.5 88.72-21.15 90.74-21.8 92.99-21.8L92.99-21.8Q94.74-21.8 96.64-21.4 98.54-21 100.09-20.25L100.09-20.25Q99.69-18.5 99.37-17.15 99.04-15.8 98.79-14.5L98.79-14.5 96.19-14.55 95.54-17.95Q94.64-19.15 92.59-19.15L92.59-19.15Q91.49-19.15 90.57-18.65 89.64-18.15 89.64-17L89.64-17Q89.64-15.9 90.44-15.23 91.24-14.55 92.52-14.05 93.79-13.55 95.24-12.98 96.69-12.4 97.97-11.55 99.24-10.7 100.04-9.38 100.84-8.05 100.84-6L100.84-6Q100.84-3.6 99.54-2.18 98.24-0.75 96.09-0.13 93.94 0.5 91.44 0.5L91.44 0.5Q89.54 0.5 87.59 0.1 85.64-0.3 83.79-1.3ZM103.14-1.3L103.14-1.3Q103.54-3.2 103.81-4.48 104.09-5.75 104.29-7.25L104.29-7.25 106.79-7.25 107.59-3.35Q108.24-2.8 109.14-2.5 110.04-2.2 110.94-2.2L110.94-2.2Q112.19-2.2 113.17-2.8 114.14-3.4 114.14-4.65L114.14-4.65Q114.14-5.7 113.37-6.38 112.59-7.05 111.39-7.58 110.19-8.1 108.84-8.63 107.49-9.15 106.29-9.95 105.09-10.75 104.31-11.95 103.54-13.15 103.54-15L103.54-15Q103.54-17.55 104.79-19.03 106.04-20.5 108.06-21.15 110.09-21.8 112.34-21.8L112.34-21.8Q114.09-21.8 115.99-21.4 117.89-21 119.44-20.25L119.44-20.25Q119.04-18.5 118.72-17.15 118.39-15.8 118.14-14.5L118.14-14.5 115.54-14.55 114.89-17.95Q113.99-19.15 111.94-19.15L111.94-19.15Q110.84-19.15 109.92-18.65 108.99-18.15 108.99-17L108.99-17Q108.99-15.9 109.79-15.23 110.59-14.55 111.87-14.05 113.14-13.55 114.59-12.98 116.04-12.4 117.31-11.55 118.59-10.7 119.39-9.38 120.19-8.05 120.19-6L120.19-6Q120.19-3.6 118.89-2.18 117.59-0.75 115.44-0.13 113.29 0.5 110.79 0.5L110.79 0.5Q108.89 0.5 106.94 0.1 104.99-0.3 103.14-1.3ZM122.84 0L122.84 0 122.19-1.9 126.59-2.95Q126.69-7.25 126.76-11.18 126.84-15.1 126.84-18.95L126.84-18.95Q126.84-22.05 126.79-24.65 126.74-27.25 126.59-29.85L126.59-29.85 122.19-31.05 122.69-33Q124.29-32.9 126.14-32.85 127.99-32.8 130.29-32.8L130.29-32.8Q132.54-32.8 134.91-32.9 137.29-33 139.29-33L139.29-33Q142.64-33 144.66-31.88 146.69-30.75 147.59-28.98 148.49-27.2 148.49-25.2L148.49-25.2Q148.49-22.9 147.11-21 145.74-19.1 143.31-17.98 140.89-16.85 137.74-16.85L137.74-16.85Q137.94-16.85 137.39-16.82 136.84-16.8 136.04-16.78 135.24-16.75 134.69-16.75L134.69-16.75Q134.29-16.75 133.56-16.78 132.84-16.8 132.19-16.88 131.54-16.95 131.29-17.05L131.29-17.05 131.29-19.5Q132.84-19.25 133.94-19.13 135.04-19 136.24-19L136.24-19Q137.14-19 137.39-19 137.64-19 137.81-19.03 137.99-19.05 138.59-19.1L138.59-19.1Q139.94-19.9 140.59-21.38 141.24-22.85 141.24-24.45L141.24-24.45Q141.24-26.6 140.11-28.33 138.99-30.05 136.59-30.05L136.59-30.05Q135.84-30.05 135.26-29.95 134.69-29.85 134.14-29.6L134.14-29.6Q134.14-26.15 134.11-23.33 134.09-20.5 134.06-18.85 134.04-17.2 134.04-17.2L134.04-17.2Q134.04-14.2 134.04-12.08 134.04-9.95 134.04-8.43 134.04-6.9 134.06-5.65 134.09-4.4 134.14-3.1L134.14-3.1 133.99-2.15Q133.79-1.95 133.74-1.6 133.69-1.25 133.41-0.9 133.14-0.55 132.39-0.33 131.64-0.1 130.09-0.15L130.09-0.15Q127.84-0.2 126.11-0.13 124.39-0.05 122.84 0ZM138.54 0.05L138.54 0.05Q136.79 0.05 134.99-0.05 133.19-0.15 130.09-0.15L130.09-0.15Q129.99-0.15 130.46-0.53 130.94-0.9 131.59-1.48 132.24-2.05 132.81-2.6 133.39-3.15 133.54-3.5L133.54-3.5Q135.14-3 136.31-2.83 137.49-2.65 138.59-2.65L138.59-2.65Q141.49-3.35 142.71-5.15 143.94-6.95 143.94-9L143.94-9Q143.94-10.75 143.11-12.38 142.29-14 140.64-15.05 138.99-16.1 136.44-16.1L136.44-16.1Q135.89-16.1 134.54-16 133.19-15.9 131.19-15.65L131.19-15.65 131.44-17.95Q133.04-18.15 134.81-18.25 136.59-18.35 137.99-18.35L137.99-18.35Q141.99-18.35 144.99-17.43 147.99-16.5 149.69-14.5 151.39-12.5 151.39-9.15L151.39-9.15Q151.39-6.6 150.01-4.53 148.64-2.45 145.81-1.2 142.99 0.05 138.54 0.05ZM167.08-21.8L167.08-21.8Q169.73-21.8 171.69-20.18 173.63-18.55 173.63-15.25L173.63-15.25Q173.63-13.1 173.56-11.65 173.48-10.2 173.41-9.08 173.33-7.95 173.33-6.75L173.33-6.75Q173.33-5.35 173.51-4.78 173.69-4.2 174.48-4.2L174.48-4.2Q175.19-4.2 176.58-4.85L176.58-4.85 177.48-2.65Q175.69-1.4 174.03-0.58 172.38 0.25 170.53 0.25L170.53 0.25Q168.98 0.25 167.83-0.98 166.69-2.2 166.69-4.85L166.69-4.85Q166.69-7.3 166.91-9.68 167.13-12.05 167.13-13.9L167.13-13.9Q167.13-15.45 166.69-16.4 166.23-17.35 165.19-17.7L165.19-17.7Q162.88-17.6 160.78-16.85 158.69-16.1 156.48-14.95L156.48-14.95 155.19-17.1Q158.03-19.2 160.96-20.5 163.88-21.8 167.08-21.8ZM170.63-13.95L170.63-13.95 167.63-9.8Q166.53-9.55 165.69-9.3 164.83-9.05 164.13-8.9L164.13-8.9Q162.44-8.55 161.78-8.03 161.13-7.5 161.13-6.2L161.13-6.2Q161.13-5.15 161.69-4.55 162.23-3.95 163.19-3.95L163.19-3.95Q164.33-3.95 166.11-5.03 167.88-6.1 169.13-7.75L169.13-7.75 170.08-5.7Q169.28-4.7 167.81-3.25 166.33-1.8 164.28-0.68 162.23 0.45 159.78 0.45L159.78 0.45Q158.53 0.45 157.36-0.23 156.19-0.9 155.41-2.25 154.63-3.6 154.63-5.6L154.63-5.6Q154.63-7.7 155.91-8.88 157.19-10.05 159.38-10.7 161.58-11.35 164.23-11.8L164.23-11.8Q166.03-12.1 167.58-12.58 169.13-13.05 170.63-13.95ZM198.28-21.75L198.28-21.75Q201.13-21.75 202.96-19.6 204.78-17.45 204.98-14.05L204.98-14.05Q205.03-13.15 204.98-11.23 204.93-9.3 204.91-7.05 204.88-4.8 204.88-2.9L204.88-2.9 208.63-1.85 207.83 0Q206.53-0.1 204.88-0.13 203.23-0.15 201.63-0.15L201.63-0.15Q199.68-0.15 198.13-0.1 196.58-0.05 195.28 0L195.28 0 194.63-1.85 198.28-2.9Q198.33-4.6 198.38-5.78 198.43-6.95 198.46-8.13 198.48-9.3 198.43-10.9L198.43-10.9Q198.38-13.95 197.33-15.35 196.28-16.75 194.23-17.2L194.23-17.2Q192.03-15.75 191.03-13.65 190.03-11.55 190.08-9.65L190.08-9.65 188.23-11.85Q188.58-14.7 189.96-16.95 191.33-19.2 193.48-20.48 195.63-21.75 198.28-21.75ZM190.13-22L190.13-22Q190.13-20.35 190.13-19.33 190.13-18.3 190.11-17.28 190.08-16.25 189.98-14.55L189.98-14.55 190.18-2.9 193.83-1.85 193.18 0Q191.48-0.1 189.98-0.13 188.48-0.15 186.68-0.15L186.68-0.15Q184.73-0.15 183.31-0.1 181.88-0.05 180.43 0L180.43 0 179.63-1.85 183.38-2.9Q183.38-4.5 183.51-6.68 183.63-8.85 183.63-10.8L183.63-10.8Q183.63-12.25 183.61-13.23 183.58-14.2 183.48-15.28 183.38-16.35 183.18-18.1L183.18-18.1 179.28-19.05 178.68-20.95Q181.63-21.1 184.26-21.38 186.88-21.65 190.13-22ZM220.83-37.25L220.83-37.25Q220.83-36 220.83-33.25 220.83-30.5 220.8-27 220.78-23.5 220.75-19.88 220.73-16.25 220.73-13.2L220.73-13.2 220.98-2.9 224.38-1.85 223.63 0Q221.78-0.1 220.3-0.13 218.83-0.15 217.08-0.15L217.08-0.15Q215.08-0.15 213.45-0.13 211.83-0.1 210.18 0L210.18 0 209.33-1.85 213.63-2.9Q213.93-8.55 213.93-14.65L213.93-14.65Q213.93-20.25 213.83-25.08 213.73-29.9 213.43-33.65L213.43-33.65 209.43-34.3 208.98-36.35Q209.83-36.4 211.33-36.5 212.83-36.6 214.58-36.73 216.33-36.85 217.98-36.98 219.63-37.1 220.83-37.25ZM221.23-10.95L221.23-10.95Q222.53-12.25 223.58-13.23 224.63-14.2 225.63-15.35 226.63-16.5 227.78-18.15L227.78-18.15 223.63-19.2 224.23-21.05Q225.78-21 227.25-20.95 228.73-20.9 230.53-20.9L230.53-20.9Q233.78-20.9 236.38-21.05L236.38-21.05 237.08-19.2 232.93-18.2Q231.03-16.55 229.81-15.45 228.58-14.35 227.55-13.33 226.53-12.3 225.13-10.95L225.13-10.95 226.88-13.6Q228.43-11.05 229.45-9.35 230.48-7.65 231.53-6.2 232.58-4.75 234.08-2.9L234.08-2.9 237.93-1.85 237.43 0Q236.03-0.1 234.81-0.1 233.58-0.1 232.13-0.1L232.13-0.1Q230.73-0.1 229.5-0.1 228.28-0.1 227.08 0L227.08 0Q225.63-2.6 224.3-5.25 222.98-7.9 221.23-10.95Z" opacity="1" transform="matrix(1,0,0,1,0,0)" fill="#ffffff" class="wordmark-text-0" data-fill-palette-color="primary" id="text-0"></path></svg></g></svg></g></svg></g></svg></g><g></g></svg></g></svg></g></svg></g><g><path d="M0 247.2v-247.2h395.52v247.2zM390.974 242.654v-238.108h-386.428v238.108z" fill="#ffffff" fill-rule="nonzero" stroke="none" stroke-width="1" stroke-linecap="butt" stroke-linejoin="miter" stroke-miterlimit="10" stroke-dasharray="" stroke-dashoffset="0" font-family="none" font-weight="none" font-size="none" text-anchor="none" style="mix-blend-mode: normal" data-fill-palette-color="tertiary"></path></g></svg></g><defs></defs></svg><rect width="395.52" height="247.2" fill="none" stroke="none" visibility="hidden"></rect></g></svg></g></svg>